<svg width="99" height="100" viewBox="0 0 99 100" fill="none" xmlns="http://www.w3.org/2000/svg">
<path d="M40.0673 41.4273C39.0015 42.5304 38.4175 44.0117 38.4439 45.5454C38.4703 47.0791 39.1048 48.5395 40.2079 49.6053C42.0087 51.3451 56.7456 60.6422 63.0315 64.5796C63.1692 64.6662 63.3326 64.7027 63.4941 64.6831C63.6556 64.6635 63.8054 64.5889 63.9184 64.472C64.0315 64.355 64.1008 64.2027 64.1148 64.0406C64.1289 63.8785 64.0867 63.7165 63.9955 63.5819C59.8443 57.4351 50.0461 43.0265 48.2454 41.2866C47.6992 40.7589 47.0543 40.3439 46.3477 40.0653C45.6412 39.7868 44.8866 39.6501 44.1272 39.6632C43.3678 39.6763 42.6184 39.8388 41.9218 40.1414C41.2252 40.4441 40.595 40.881 40.0673 41.4273Z" fill="#D6A27B"/>
<path d="M62.3435 12.8467C56.8463 10.9223 50.9868 10.2588 45.1985 10.9051C39.4102 11.5515 33.8414 13.4912 28.9041 16.5807C23.9668 19.6702 19.7874 23.8304 16.6753 28.7535C13.5632 33.6766 11.5979 39.2365 10.925 45.0217C10.2521 50.807 10.8887 56.6695 12.7878 62.1755C14.6869 67.6814 17.7999 72.6898 21.8962 76.8301C25.9926 80.9703 30.9676 84.1364 36.453 86.0941C41.9384 88.0517 47.7938 88.7508 53.5859 88.1396C53.9241 88.1035 54.2518 88.0012 54.5505 87.8385C54.8491 87.6758 55.1128 87.4559 55.3264 87.1913C55.5401 86.9267 55.6995 86.6226 55.7956 86.2963C55.8917 85.9701 55.9227 85.6282 55.8866 85.29C55.8506 84.9518 55.7483 84.624 55.5856 84.3254C55.4229 84.0268 55.203 83.7631 54.9383 83.5494C54.6737 83.3358 54.3696 83.1764 54.0434 83.0802C53.7172 82.9841 53.3752 82.9532 53.0371 82.9892C48.0748 83.5223 43.0562 82.9354 38.3509 81.2718C32.1719 79.1049 26.7589 75.1832 22.7748 69.9867C18.7908 64.7903 16.4086 58.5448 15.92 52.0151C15.4315 45.4854 16.8578 38.955 20.0243 33.2235C23.1907 27.4921 27.9599 22.8085 33.7477 19.7463C39.5355 16.6841 46.0907 15.3763 52.6105 15.983C59.1303 16.5896 65.3316 19.0845 70.4551 23.162C75.5785 27.2394 79.4017 32.7226 81.4563 38.9398C83.5109 45.1571 83.7079 51.8385 82.023 58.166L82.5492 58.3505C81.901 58.1233 84.3405 57.4334 83.7215 57.731C84.1896 58.569 82.2502 57.5179 82.023 58.166C81.7957 58.8141 81.2977 61.8396 81.3928 62.4568C81.4879 63.074 81.5243 63.3099 82.3771 63.7278L82.846 63.943C83.1669 64.0556 83.5069 64.1038 83.8464 64.085C84.186 64.0661 84.5185 63.9806 84.825 63.8332C85.1315 63.6859 85.406 63.4796 85.6328 63.2261C85.8595 62.9727 86.0341 62.6771 86.1467 62.3561C89.5434 52.6338 88.9449 41.9611 84.4825 32.6795C80.0201 23.3978 72.0582 16.2653 62.3435 12.8467Z" fill="#D6A27B"/>
<rect x="82.5337" y="57.3145" width="1.72642" height="1.72642" fill="#D6A27B"/>
</svg>
